<svg xmlns="http://www.w3.org/2000/svg" viewBox="0 0 500 500"><title>FEDSource</title><rect width="500" height="500" fill="#005e89"/><rect x="5" y="5" width="490" height="490" fill="none" stroke="#FFF" stroke-miterlimit="10" stroke-width="10"/><rect x="15" y="15" width="470" height="470" transform="translate(500 0) rotate(90)" fill="none" stroke="#002b49" stroke-miterlimit="10" stroke-width="10"/><path d="M92.58,334.35a56.84,56.84,0,0,0-12.4-5.52,22.09,22.09,0,0,0-6.63-1.06,9.25,9.25,0,0,0-4.21.81,2.83,2.83,0,0,0-1.56,2.73,3.13,3.13,0,0,0,.91,2.33,8.34,8.34,0,0,0,2.63,1.67,32.37,32.37,0,0,0,4.2,1.47c1.65.47,3.53,1.05,5.62,1.72a74.76,74.76,0,0,1,9,3.34,28.15,28.15,0,0,1,6.83,4.3,16.62,16.62,0,0,1,4.35,6,21.66,21.66,0,0,1,1.52,8.6,22.78,22.78,0,0,1-2.37,10.89,19.53,19.53,0,0,1-6.28,7,26.54,26.54,0,0,1-8.81,3.8,43,43,0,0,1-9.87,1.16,56.65,56.65,0,0,1-8.1-.6,71.54,71.54,0,0,1-8.25-1.72,72.27,72.27,0,0,1-7.89-2.64,50,50,0,0,1-7-3.44l8.5-17.31a60.18,60.18,0,0,0,7.39,3.95,52.91,52.91,0,0,0,7.34,2.73,29.24,29.24,0,0,0,8.35,1.22c2.16,0,3.66-.29,4.51-.87a2.63,2.63,0,0,0,1.26-2.27,3.24,3.24,0,0,0-1.26-2.58,11.67,11.67,0,0,0-3.49-1.88c-1.49-.54-3.19-1.08-5.12-1.62s-4-1.18-6.12-1.92a52.72,52.72,0,0,1-8.2-3.49A22.41,22.41,0,0,1,51.68,347a15.22,15.22,0,0,1-3.29-5.42,21.08,21.08,0,0,1-1.07-7A24.11,24.11,0,0,1,49.5,324a21.85,21.85,0,0,1,5.92-7.6,26.47,26.47,0,0,1,8.56-4.6,32.48,32.48,0,0,1,10.18-1.57,38.35,38.35,0,0,1,7.69.76,60.78,60.78,0,0,1,7.23,1.92q3.49,1.17,6.54,2.53t5.46,2.58Z" fill="#fff"/><path d="M144.51,383.35a34.61,34.61,0,0,1-14.88-3.14A36.78,36.78,0,0,1,118.19,372a37.31,37.31,0,0,1-7.39-11.69,36.13,36.13,0,0,1-2.63-13.57A35.29,35.29,0,0,1,110.9,333a36.26,36.26,0,0,1,7.65-11.6,37.17,37.17,0,0,1,11.64-8,35.88,35.88,0,0,1,14.73-3,34.64,34.64,0,0,1,14.88,3.14,36.44,36.44,0,0,1,11.44,8.3,37.31,37.31,0,0,1,7.34,11.74,36.63,36.63,0,0,1,2.58,13.47,34.93,34.93,0,0,1-2.73,13.61,36.76,36.76,0,0,1-7.6,11.54,37.26,37.26,0,0,1-11.59,8.05A35.33,35.33,0,0,1,144.51,383.35Zm-16.3-36.45a24.66,24.66,0,0,0,1,7,18.46,18.46,0,0,0,3,6,15.28,15.28,0,0,0,5.11,4.26,17.31,17.31,0,0,0,14.73-.05,15,15,0,0,0,5.12-4.36,18.86,18.86,0,0,0,2.93-6.12,25.9,25.9,0,0,0,1-7,24.24,24.24,0,0,0-1-7,17.18,17.18,0,0,0-3.09-6,15.59,15.59,0,0,0-5.16-4.15,15.86,15.86,0,0,0-7.24-1.57,15.62,15.62,0,0,0-7.34,1.62,15.08,15.08,0,0,0-5.11,4.31,18.32,18.32,0,0,0-3,6.07A25.31,25.31,0,0,0,128.21,346.9Z" fill="#fff"/><path d="M221.55,365.84a10.86,10.86,0,0,0,5.87-1.52,12.09,12.09,0,0,0,4-4,18.36,18.36,0,0,0,2.23-5.72,31.81,31.81,0,0,0,.71-6.78v-37h19.74v37a49.54,49.54,0,0,1-1.92,14,30.53,30.53,0,0,1-6,11.28,28.28,28.28,0,0,1-10.17,7.5,35.25,35.25,0,0,1-14.43,2.73,34.37,34.37,0,0,1-14.73-2.88,28.34,28.34,0,0,1-10.07-7.75A31.07,31.07,0,0,1,191,361.43a49.44,49.44,0,0,1-1.82-13.61v-37H208.9v37a31.84,31.84,0,0,0,.71,6.83,18.36,18.36,0,0,0,2.22,5.77,11.88,11.88,0,0,0,3.9,3.95A10.89,10.89,0,0,0,221.55,365.84Z" fill="#fff"/><path d="M266,382.74V310.86h33a21.89,21.89,0,0,1,9.72,2.18,25.22,25.22,0,0,1,7.64,5.67,26.57,26.57,0,0,1,5,8,24.05,24.05,0,0,1,1.82,9.06,25.61,25.61,0,0,1-2.73,11.69,23.78,23.78,0,0,1-7.59,8.86l15.18,26.42H305.78l-12.65-22.07h-7.4v22.07Zm19.74-39.28h12.46a4.37,4.37,0,0,0,3.39-2,9.1,9.1,0,0,0,1.57-5.67,8.15,8.15,0,0,0-1.82-5.72,5.11,5.11,0,0,0-3.65-2H285.73Z" fill="#fff"/><path d="M330.08,346.2a35.34,35.34,0,0,1,2.48-13,35,35,0,0,1,7.24-11.44,36.12,36.12,0,0,1,27-11.34,36.24,36.24,0,0,1,18.07,4.3,28.12,28.12,0,0,1,11.39,11.39L381.2,336.88a12.73,12.73,0,0,0-2.68-4.35,13.43,13.43,0,0,0-3.7-2.73,15.66,15.66,0,0,0-4.2-1.42,23,23,0,0,0-4.2-.41,15.27,15.27,0,0,0-7.34,1.67A15.1,15.1,0,0,0,354,334a18.92,18.92,0,0,0-2.94,6.07,24.65,24.65,0,0,0-1,6.73,23,23,0,0,0,1.12,7.19,18.7,18.7,0,0,0,3.23,6.07,15.88,15.88,0,0,0,5.22,4.21,15.16,15.16,0,0,0,6.93,1.57,20,20,0,0,0,4.15-.46,15.16,15.16,0,0,0,4.1-1.52,14,14,0,0,0,3.55-2.73,12.22,12.22,0,0,0,2.48-4.1l16.1,9.62a20.51,20.51,0,0,1-4.91,7.08A31.38,31.38,0,0,1,384.6,379a40.12,40.12,0,0,1-9,3.24,41.54,41.54,0,0,1-9.36,1.11,33.26,33.26,0,0,1-14.63-3.19,37.21,37.21,0,0,1-11.44-8.45,38.44,38.44,0,0,1-7.44-11.95A36.57,36.57,0,0,1,330.08,346.2Z" fill="#fff"/><path d="M455.81,365.53v17.21H404.59V310.86H454.9v17.21H424.33V338.2h26.12v16H424.33v11.34Z" fill="#fff"/><path d="M72.67,264.91V116.35H173.53v30.13H107v32h54.82v27.83H107v58.59Z" fill="#fff"/><path d="M286.51,234.78v30.13H182.1V116.35H284.63v30.13H216.42v28.87H275v27.83H216.42v31.6Z" fill="#fff"/><path d="M297.81,264.91V116.35h55.45q18.4,0,32.22,5.86a64.81,64.81,0,0,1,37.14,39.44,86.67,86.67,0,0,1,4.71,28.77,85.5,85.5,0,0,1-5.23,30.65,66,66,0,0,1-15,23.44,67.24,67.24,0,0,1-23.44,15.06,83.17,83.17,0,0,1-30.44,5.34Zm94.58-74.49a57.8,57.8,0,0,0-2.62-17.89,40.13,40.13,0,0,0-7.64-13.92,33.23,33.23,0,0,0-12.34-9,41.47,41.47,0,0,0-16.53-3.14H332.13v88.3h21.13A39.9,39.9,0,0,0,370,231.43a33.93,33.93,0,0,0,12.24-9.31,42.45,42.45,0,0,0,7.53-14A57.12,57.12,0,0,0,392.39,190.42Z" fill="#fff"/></svg>