<?xml version="1.0" standalone="no"?>
<!DOCTYPE svg PUBLIC "-//W3C//DTD SVG 20010904//EN"
 "http://www.w3.org/TR/2001/REC-SVG-20010904/DTD/svg10.dtd">
<svg version="1.0" xmlns="http://www.w3.org/2000/svg"
 width="700.000000pt" height="700.000000pt" viewBox="0 0 700.000000 700.000000"
 preserveAspectRatio="xMidYMid meet">
<metadata>
Created by potrace 1.11, written by Peter Selinger 2001-2013
</metadata>
<g transform="translate(0.000000,700.000000) scale(0.100000,-0.100000)"
fill="#000000" stroke="none">
<path d="M140 3500 l0 -3360 3360 0 3360 0 0 3360 0 3360 -3360 0 -3360 0 0
-3360z m2290 1660 l0 -210 -465 0 -465 0 0 -225 0 -225 385 0 385 0 0 -195 0
-195 -385 0 -385 0 0 -410 0 -410 -240 0 -240 0 0 1040 0 1040 705 0 705 0 0
-210z m1560 0 l0 -210 -480 0 -480 0 0 -200 0 -200 410 0 410 0 0 -200 0 -200
-410 0 -410 0 0 -220 0 -220 490 0 490 0 0 -210 0 -210 -730 0 -730 0 0 1040
0 1040 720 0 720 0 0 -210z m1265 177 c277 -75 493 -245 613 -483 132 -261
150 -642 46 -936 -95 -267 -310 -474 -587 -566 -169 -56 -235 -62 -719 -62
l-438 0 0 1041 0 1040 493 -3 492 -4 100 -27z m-4105 -2691 c71 -15 215 -68
244 -89 17 -12 15 -20 -38 -125 -31 -62 -58 -112 -61 -112 -2 0 -19 9 -37 19
-50 30 -182 71 -225 71 -70 0 -106 -46 -65 -83 10 -9 73 -35 141 -57 255 -82
331 -156 331 -320 0 -135 -72 -242 -195 -290 -86 -34 -283 -35 -403 -2 -70 19
-206 72 -220 86 -2 2 24 58 57 124 l60 120 78 -39 c165 -81 323 -94 323 -25 0
33 -28 48 -161 92 -183 59 -250 100 -292 178 -31 57 -31 190 0 258 72 158 260
237 463 194z m1038 -18 c173 -55 300 -203 339 -396 39 -189 -49 -399 -214
-508 -192 -127 -418 -121 -601 17 -147 112 -225 315 -188 495 18 91 51 163
107 233 44 55 148 128 221 156 99 37 227 38 336 3z m3102 5 c30 -8 72 -24 94
-35 46 -24 124 -95 148 -135 l17 -29 -94 -67 c-52 -37 -100 -70 -107 -72 -7
-3 -23 10 -35 29 -40 62 -157 99 -242 76 -57 -15 -125 -79 -148 -138 -23 -59
-23 -182 -1 -233 43 -98 135 -156 232 -146 77 8 123 35 169 100 11 16 21 12
124 -49 l113 -66 -16 -29 c-36 -71 -132 -141 -244 -180 -94 -32 -251 -32 -333
0 -193 76 -328 257 -344 460 -10 149 43 285 152 391 138 131 324 176 515 123z
m-2358 -300 l3 -318 25 -44 c34 -60 69 -83 132 -89 61 -4 106 19 145 76 36 55
43 118 43 412 l0 280 141 0 141 0 -5 -322 c-4 -347 -7 -371 -61 -477 -79 -155
-274 -243 -472 -213 -191 30 -320 152 -360 341 -10 48 -14 147 -14 369 l0 302
139 0 140 0 3 -317z m1390 284 c210 -103 267 -384 111 -557 -26 -29 -43 -56
-40 -64 3 -8 49 -90 101 -181 53 -92 96 -169 96 -171 0 -3 -70 -3 -156 -2
l-156 3 -86 152 -87 152 -52 1 -53 0 0 -155 0 -155 -140 0 -140 0 0 506 0 505
273 -3 272 -3 57 -28z m2048 -87 l0 -120 -215 0 -215 0 0 -70 0 -70 183 -2
182 -3 3 -112 3 -113 -186 0 -185 0 0 -80 0 -80 220 0 220 0 0 -120 0 -120
-360 0 -360 0 0 505 0 505 355 0 355 0 0 -120z"/>
<path d="M4650 4329 l0 -622 203 5 c185 5 208 7 276 31 92 32 172 86 223 150
196 248 182 700 -27 908 -116 116 -226 149 -497 149 l-178 0 0 -621z"/>
<path d="M1946 2395 c-47 -17 -91 -57 -119 -110 -18 -33 -22 -57 -22 -140 0
-84 4 -107 22 -141 88 -165 310 -165 395 0 30 58 37 190 13 253 -46 121 -170
181 -289 138z"/>
<path d="M4000 2301 l0 -111 89 0 c49 0 97 3 106 6 48 19 61 134 21 181 -23
26 -29 28 -120 31 l-96 4 0 -111z"/>
</g>
</svg>
